<svg data-logo="logo" xmlns="http://www.w3.org/2000/svg" viewBox="0 0 210 44.323" width="210" height="44.323"><g id="logogram" transform="translate(0 1)"><path d="M20.326 6.145V0H0.956v42.212h19.37v-6.145a14.963 14.963 0 0 1 0 -29.923" fill="#394149"/><path d="M20.326 6.145v29.923a14.963 14.963 0 0 0 0 -29.923" fill="#394149"/></g><g id="logotype" transform="translate(40 1)"><path fill="#111111" d="M18.614 35.225q-3.23 0 -5.624 -0.991Q10.605 33.243 9.276 31.29q-1.34 -1.953 -1.413 -4.801h5.361q0.105 1.361 0.813 2.268 0.697 0.907 1.867 1.361 1.182 0.454 2.659 0.454t2.564 -0.422q1.098 -0.433 1.709 -1.203 0.611 -0.781 0.611 -1.804 0 -0.918 -0.548 -1.541t-1.583 -1.077q-1.023 -0.454 -2.501 -0.792l-2.965 -0.739q-3.408 -0.834 -5.34 -2.606 -1.922 -1.772 -1.922 -4.696 0 -2.438 1.308 -4.263 1.298 -1.814 3.589 -2.829 2.279 -1.012 5.202 -1.012 2.976 0 5.191 1.023t3.461 2.829q1.245 1.814 1.277 4.179h-5.319q-0.147 -1.625 -1.382 -2.512 -1.235 -0.876 -3.282 -0.876 -1.392 0 -2.386 0.391 -0.991 0.401 -1.52 1.098 -0.517 0.708 -0.517 1.615 0 0.991 0.601 1.646t1.583 1.067q0.991 0.401 2.121 0.676l2.438 0.59q1.699 0.38 3.156 1.033 1.455 0.645 2.564 1.594 1.098 0.949 1.699 2.247t0.601 2.986q0 2.438 -1.224 4.253t-3.545 2.808q-2.333 0.991 -5.592 0.991m17.222 -12.073v11.672h-5.414V7.957h5.298v11.735h-0.433q0.802 -2.522 2.417 -3.904t4.169 -1.382q2.09 0 3.652 0.918 1.562 0.907 2.417 2.617 0.855 1.699 0.855 4.064v12.821h-5.403v-11.882q0 -1.877 -0.97 -2.944 -0.96 -1.067 -2.669 -1.067 -1.14 0 -2.037 0.496 -0.886 0.496 -1.382 1.434t-0.496 2.289m24.198 12.073q-3.028 0 -5.244 -1.308 -2.226 -1.308 -3.419 -3.652 -1.203 -2.333 -1.203 -5.435 0 -3.133 1.203 -5.466 1.193 -2.344 3.419 -3.652 2.216 -1.308 5.244 -1.308 3.049 0 5.256 1.308t3.408 3.652q1.203 2.333 1.203 5.466 0 3.102 -1.203 5.435 -1.203 2.344 -3.408 3.652t-5.256 1.308m0 -4.263q1.445 0 2.417 -0.802t1.455 -2.195q0.496 -1.403 0.496 -3.144 0 -1.793 -0.496 -3.177 -0.485 -1.392 -1.455 -2.184t-2.417 -0.792 -2.407 0.792q-0.97 0.792 -1.455 2.184 -0.485 1.382 -0.485 3.177 0 1.741 0.485 3.144 0.485 1.392 1.455 2.195 0.96 0.802 2.407 0.802m16.643 11.397h-5.414V14.658h5.33v3.398h0.254q0.37 -0.802 1.067 -1.646t1.835 -1.424q1.13 -0.58 2.85 -0.58 2.236 0 4.095 1.161 1.856 1.151 2.965 3.461t1.109 5.752q0 3.356 -1.088 5.678 -1.077 2.312 -2.934 3.513 -1.856 1.193 -4.19 1.193 -1.636 0 -2.776 -0.559 -1.14 -0.548 -1.846 -1.371 -0.718 -0.823 -1.088 -1.636h-0.168zm4.221 -11.533q1.403 0 2.375 -0.781 0.96 -0.771 1.455 -2.142t0.496 -3.144q0 -1.762 -0.496 -3.112t-1.445 -2.131q-0.96 -0.771 -2.386 -0.771 -1.392 0 -2.365 0.75 -0.97 0.739 -1.478 2.09 -0.506 1.34 -0.506 3.177 0 1.825 0.517 3.188t1.489 2.121 2.344 0.76m16.842 3.996H92.274V7.957h8.442l4.368 12.335q0.265 0.865 0.622 2.226 0.349 1.371 0.708 2.965 0.359 1.583 0.676 3.081t0.517 2.596h-1.067q0.2 -1.077 0.517 -2.564t0.676 -3.081q0.359 -1.583 0.708 -2.976 0.359 -1.382 0.622 -2.247l4.295 -12.335h8.474v26.867h-5.529v-12.674q0 -0.865 0.032 -2.184t0.074 -2.839q0.032 -1.531 0.074 -3.07 0.032 -1.541 0.053 -2.913h0.338q-0.338 1.499 -0.76 3.091 -0.412 1.594 -0.834 3.091t-0.802 2.755 -0.655 2.069l-4.45 12.674h-4.633l-4.528 -12.674q-0.265 -0.813 -0.645 -2.047t-0.802 -2.734q-0.433 -1.499 -0.865 -3.091 -0.433 -1.604 -0.823 -3.133h0.433q0.021 1.298 0.053 2.829 0.032 1.541 0.084 3.081 0.042 1.541 0.063 2.871 0.032 1.319 0.032 2.226zm32.048 0.401q-1.911 0 -3.44 -0.676 -1.52 -0.687 -2.396 -2.026t-0.876 -3.345q0 -1.678 0.622 -2.818 0.622 -1.13 1.699 -1.814 1.067 -0.687 2.428 -1.044t2.86 -0.506q1.751 -0.179 2.829 -0.338 1.067 -0.147 1.562 -0.485 0.496 -0.328 0.496 -0.981v-0.095q0 -0.865 -0.359 -1.455t-1.067 -0.907q-0.697 -0.317 -1.73 -0.317 -1.044 0 -1.814 0.317 -0.781 0.317 -1.266 0.834 -0.485 0.527 -0.718 1.172l-4.96 -0.823q0.517 -1.751 1.73 -2.976 1.203 -1.235 2.997 -1.877 1.793 -0.655 4.032 -0.655 1.646 0 3.177 0.391t2.755 1.203q1.214 0.813 1.922 2.111 0.718 1.298 0.718 3.133v13.579H135.87v-2.797h-0.179q-0.496 0.939 -1.308 1.646 -0.802 0.718 -1.953 1.13 -1.14 0.422 -2.638 0.422m1.531 -3.809q1.277 0 2.247 -0.506 0.96 -0.506 1.499 -1.371 0.548 -0.865 0.548 -1.932v-2.173q-0.244 0.179 -0.729 0.317 -0.485 0.147 -1.077 0.254 -0.601 0.116 -1.172 0.2 -0.58 0.095 -1.033 0.147 -0.991 0.137 -1.741 0.464 -0.76 0.328 -1.182 0.855 -0.412 0.538 -0.412 1.361 0 0.781 0.401 1.308 0.391 0.538 1.067 0.802 0.676 0.275 1.583 0.275m17.291 3.408h-5.414V14.658h5.233v3.524h0.212q0.559 -1.877 1.867 -2.839 1.308 -0.949 2.997 -0.949 0.422 0 0.897 0.042t0.855 0.137v4.834q-0.359 -0.126 -1.044 -0.2t-1.298 -0.074q-1.224 0 -2.216 0.538 -0.991 0.527 -1.541 1.478 -0.548 0.939 -0.548 2.205zm5.277 -20.166h11.955v4.137h-11.955zM156.668 29.4V9.866h5.414v19.058q0 0.96 0.422 1.413 0.422 0.464 1.413 0.464 0.307 0 0.865 -0.084 0.559 -0.074 0.855 -0.147l0.771 4.053q-0.897 0.275 -1.793 0.38 -0.886 0.105 -1.699 0.105 -3.028 0 -4.643 -1.478 -1.604 -1.478 -1.604 -4.232"/></g></svg>